<?xml version="1.0" encoding="UTF-8"?>
<svg width="210mm" height="297mm" viewBox="0 0 744.09 1052.4" xmlns="http://www.w3.org/2000/svg" xmlns:xlink="http://www.w3.org/1999/xlink">
<defs>
<linearGradient id="a" x1="-1500" x2="-1420" y1="892.36" y2="1312.4" gradientUnits="userSpaceOnUse">
<stop stop-color="#fff" offset="0"/>
<stop stop-color="#f00" stop-opacity="0" offset="1"/>
</linearGradient>
<filter id="b" x="-.036" y="-.036" width="1.072" height="1.072" color-interpolation-filters="sRGB">
<feGaussianBlur stdDeviation="5.9969831"/>
</filter>
</defs>
<g stroke="#000" stroke-linejoin="round">
<g transform="translate(1872.7 -633.9)" filter="url(#b)">
<circle cx="-1500.6" cy="1160.1" r="189.97" stroke-width="2.8496"/>
<path d="m-1500.5 960.18c-105.47 0-191.86 81.641-199.45 185.17h109.14a92.058 92.058 0 0 1 90.816-77.232 92.058 92.058 0 0 1 90.777 77.564h0.072v-0.332h107.91c-8.6743-90.194-94.566-185.17-199.26-185.17z" stroke-width="3"/>
<path d="m-1500.6 1091.9a68.141 68.141 0 0 0-68.141 68.141 68.141 68.141 0 0 0 68.141 68.143 68.141 68.141 0 0 0 68.141-68.143 68.141 68.141 0 0 0-68.141-68.141zm0 43.49a24.651 24.651 0 0 1 24.652 24.65 24.651 24.651 0 0 1-24.652 24.652 24.651 24.651 0 0 1-24.65-24.652 24.651 24.651 0 0 1 24.65-24.65z" stroke-width="3"/>
<path d="m-1700.5 1165.6c2.9823 107.85 91.345 194.37 199.92 194.37 108.26 0 196.42-101.56 199.88-194.37h-107.52a92.058 92.058 0 0 1-91.861 86.428 92.058 92.058 0 0 1-91.775-86.428h-108.65z" stroke-width="3"/>
<path d="m-1500.5 960.18c-105.47 0-191.86 81.641-199.45 185.17h109.14a92.058 92.058 0 0 1 90.816-77.232 92.058 92.058 0 0 1 90.777 77.564h0.072v-0.332h107.91c-8.6743-90.194-94.566-185.17-199.26-185.17z" stroke-width="3"/>
</g>
<g transform="translate(1872.7 -633.9)">
<circle cx="-1500.6" cy="1160.1" r="189.97" stroke-width="2.8496"/>
<path d="m-1500.5 960.18c-105.47 0-191.86 81.641-199.45 185.17h109.14a92.058 92.058 0 0 1 90.816-77.232 92.058 92.058 0 0 1 90.777 77.564h0.072v-0.332h107.91c-8.6743-90.194-94.566-185.17-199.26-185.17z" fill="#f00" stroke-width="3"/>
<path d="m-1500.6 1091.9a68.141 68.141 0 0 0-68.141 68.141 68.141 68.141 0 0 0 68.141 68.143 68.141 68.141 0 0 0 68.141-68.143 68.141 68.141 0 0 0-68.141-68.141zm0 43.49a24.651 24.651 0 0 1 24.652 24.65 24.651 24.651 0 0 1-24.652 24.652 24.651 24.651 0 0 1-24.65-24.652 24.651 24.651 0 0 1 24.65-24.65z" fill="#f2f2f2" stroke-width="3"/>
<path d="m-1700.5 1165.6c2.9823 107.85 91.345 194.37 199.92 194.37 108.26 0 196.42-101.56 199.88-194.37h-107.52a92.058 92.058 0 0 1-91.861 86.428 92.058 92.058 0 0 1-91.775-86.428h-108.65z" fill="#f9f9f9" stroke-width="3"/>
<path d="m-1500.5 960.18c-105.47 0-191.86 81.641-199.45 185.17h109.14a92.058 92.058 0 0 1 90.816-77.232 92.058 92.058 0 0 1 90.777 77.564h0.072v-0.332h107.91c-8.6743-90.194-94.566-185.17-199.26-185.17z" fill="url(#a)" stroke-width="3"/>
</g>
</g>
</svg>
